<svg width="20" height="25" viewBox="0 0 20 25" fill="none" xmlns="http://www.w3.org/2000/svg">
<path d="M10 13.2193C12.0711 13.2193 13.75 11.5601 13.75 9.51345C13.75 7.46678 12.0711 5.80762 10 5.80762C7.92893 5.80762 6.25 7.46678 6.25 9.51345C6.25 11.5601 7.92893 13.2193 10 13.2193Z" stroke="#CE9246" stroke-linecap="round" stroke-linejoin="round"/>
<path fill-rule="evenodd" clip-rule="evenodd" d="M10 24.3984L10.9467 23.3432C12.0205 22.1289 12.9869 20.9739 13.8459 19.8779L14.5559 18.953C17.5186 15.0077 19 11.8781 19 9.56419C19 4.62479 14.9706 0.620605 10 0.620605C5.02944 0.620605 1 4.62479 1 9.56419C1 11.8781 2.48137 15.0077 5.44412 18.953L6.15413 19.8779C7.25858 21.287 8.54054 22.7938 10 24.3984Z" stroke="#CE9246" stroke-linecap="round" stroke-linejoin="round"/>
</svg>
