<svg width="21" height="21" viewBox="0 0 21 21" fill="none" xmlns="http://www.w3.org/2000/svg">
<path d="M19.5868 14.9786C18.7574 14.1342 16.3998 12.5524 14.8545 12.5524C14.4966 12.5524 14.1841 12.6312 13.9285 12.7944C13.1729 13.2729 12.5707 13.6444 12.281 13.6444C12.1219 13.6444 11.9515 13.5037 11.5765 13.1828L11.514 13.1266C10.4744 12.2315 10.2528 12.0007 9.84949 11.5841L9.74723 11.4772C9.67338 11.404 9.61089 11.3365 9.5484 11.2745C9.19617 10.9143 8.94052 10.6553 8.03723 9.64207L7.99746 9.59704C7.5657 9.11293 7.28165 8.79769 7.26461 8.56689C7.24756 8.34172 7.4464 7.97583 7.95202 7.29469C8.56557 6.47283 8.58829 5.45957 8.02587 4.28307C7.57706 3.35425 6.84421 2.46483 6.19656 1.68237L6.13975 1.61482C5.58301 0.939315 4.93537 0.601562 4.21387 0.601562C3.41284 0.601562 2.74816 1.02938 2.39593 1.25455C2.36752 1.27144 2.33912 1.29396 2.31071 1.31084C1.52104 1.80621 0.947256 2.48735 0.731376 3.17974C0.407555 4.22114 0.191674 5.57215 1.74261 8.38113C3.08334 10.8129 4.29909 12.4454 6.23065 14.41C8.04859 16.2564 8.8553 16.8531 10.6619 18.1478C12.673 19.5889 14.6045 20.4164 15.9566 20.4164C17.2122 20.4164 18.2007 20.4164 19.6096 18.7332C21.0866 16.9657 20.4731 15.8849 19.5868 14.9786ZM18.9335 18.1253C17.7973 19.4876 17.144 19.4876 15.9623 19.4876C14.8091 19.4876 13.0195 18.6995 11.1789 17.3879C9.41773 16.1269 8.63374 15.5471 6.86693 13.7514C4.99786 11.8544 3.82188 10.2725 2.52659 7.92516C1.15746 5.44268 1.31084 4.35624 1.58922 3.4612C1.73692 2.98272 2.18005 2.47046 2.78224 2.09893C2.81065 2.08204 2.83905 2.05953 2.87314 2.04264C3.17424 1.85125 3.67417 1.53038 4.21955 1.53038C4.67404 1.53038 5.07739 1.75555 5.46371 2.22277L5.52052 2.29033C6.96919 4.04664 8.09972 5.6003 7.24756 6.74866C6.64537 7.55364 6.32723 8.09967 6.37836 8.66259C6.42381 9.20862 6.79308 9.61956 7.34982 10.2388L7.38959 10.2838C8.30424 11.3083 8.56557 11.5785 8.92916 11.9444C8.99165 12.0063 9.05414 12.0739 9.128 12.1471L9.23026 12.254C9.65066 12.6875 9.88358 12.9239 10.9516 13.8527L11.0141 13.909C11.4686 14.3031 11.8038 14.5901 12.2924 14.5901C12.798 14.5901 13.3547 14.2749 14.4114 13.605C14.5193 13.5375 14.6727 13.4981 14.8659 13.4981C16.0987 13.4981 18.2234 14.8941 18.9676 15.6541C19.6493 16.3408 19.9902 16.8587 18.9335 18.1253Z" fill="#CE9246"/>
</svg>
