<svg width="80" height="80" viewBox="0 0 80 80" fill="none" xmlns="http://www.w3.org/2000/svg">
<g opacity="0.2">
<path d="M67.8989 30.3487C59.6888 30.3487 51.4787 30.3487 43.252 30.3487C42.2588 30.3487 41.2491 30.381 40.256 30.3326C39.1138 30.2842 38.9318 29.1224 38.9318 28.2672C38.9318 27.1377 38.9318 26.0081 38.9318 24.8625C38.9318 23.7007 38.9318 22.555 38.9318 21.3932C38.9318 20.4573 39.0476 19.5859 40.1401 19.2632C40.4381 19.1825 40.8353 19.2309 41.1333 19.2309C41.7954 19.2309 42.474 19.2309 43.1361 19.2309C51.3794 19.2309 59.6226 19.2309 67.8824 19.2309C69.0907 19.2309 69.4383 20.2475 69.4383 21.2157C69.4383 22.3775 69.4383 23.5393 69.4383 24.7011C69.4383 25.8952 69.4383 27.0731 69.4383 28.2672C69.4549 29.2999 69.1569 30.3003 67.8989 30.3487C66.3099 30.4133 66.2933 32.8337 67.8989 32.7692C70.117 32.6885 71.6564 31.1717 71.9212 29.0579C72.004 28.3479 71.9378 27.5895 71.9378 26.8795C71.9378 24.8463 71.9378 22.8132 71.9378 20.7639C71.9378 18.763 70.3653 17.101 68.3458 16.8589C67.9817 16.8105 67.601 16.8266 67.2368 16.8266C65.565 16.8266 63.8932 16.8266 62.2048 16.8266C56.9907 16.8266 51.7932 16.8266 46.5791 16.8266C44.8245 16.8266 43.0699 16.8266 41.3153 16.8266C41.034 16.8266 40.7526 16.8266 40.4877 16.8266C38.4352 16.8266 36.7303 18.3596 36.482 20.3282C36.3827 21.0705 36.4489 21.8289 36.4489 22.5873C36.4489 23.8781 36.4489 25.169 36.4489 26.4599C36.4489 27.2506 36.4489 28.0413 36.4489 28.8319C36.4489 30.7037 37.8227 32.3335 39.7097 32.7046C40.7691 32.9144 41.9775 32.7853 43.0534 32.7853C45.2714 32.7853 47.506 32.7853 49.7241 32.7853C55.7824 32.7853 61.8406 32.7853 67.8989 32.7853C69.5045 32.7692 69.5045 30.3487 67.8989 30.3487Z" fill="#CE9246"/>
<path d="M44.477 31.5589C44.477 38.1425 44.477 44.726 44.477 51.3257C44.477 59.0549 44.477 66.7842 44.477 74.4972C44.477 76.1109 43.1693 77.4502 41.5306 77.5793C41.2658 77.5954 41.0009 77.5793 40.7526 77.5793C39.3622 77.5793 37.9718 77.5793 36.5814 77.5793C31.5494 77.5793 26.5339 77.5793 21.5019 77.5793C16.983 77.5793 12.4642 77.5793 7.94528 77.5793C7.18385 77.5793 6.42243 77.5793 5.66101 77.5793C4.00574 77.5793 2.63187 76.3045 2.49945 74.707C2.4829 74.4488 2.49945 74.1907 2.49945 73.9325C2.49945 65.1383 2.49945 56.3441 2.49945 47.5499C2.49945 42.2411 2.49945 36.9484 2.49945 31.6396C2.49945 23.039 2.49945 14.4546 2.49945 5.85404C2.49945 4.03065 3.7078 2.44931 5.69411 2.44931C6.62106 2.44931 7.54801 2.44931 8.49151 2.44931C13.1594 2.44931 17.8272 2.44931 22.4951 2.44931C27.4112 2.44931 32.3439 2.44931 37.26 2.44931C38.5015 2.44931 39.7429 2.44931 41.0009 2.44931C42.921 2.44931 44.477 3.67566 44.477 5.62813C44.477 9.75899 44.477 13.8898 44.477 18.0046C44.477 19.5698 46.9599 19.5698 46.9599 18.0046C46.9599 14.0673 46.9599 10.114 46.9599 6.17676C46.9599 5.27314 46.9102 4.38565 46.5626 3.53043C45.8509 1.75545 44.2287 0.448426 42.3086 0.109567C41.3485 -0.051795 40.3223 0.0127495 39.3622 0.0127495C29.861 0.0127495 20.3598 0.0127495 10.8585 0.0127495C9.3688 0.0127495 7.89562 0.0127495 6.40588 0.0127495C4.41956 0.0127495 2.53256 0.480698 1.24145 2.09431C0.148974 3.44975 0 4.96655 0 6.5963C0 8.17764 0 9.77512 0 11.3565C0 20.4734 0 29.5903 0 38.7073C0 45.0004 0 51.3096 0 57.6027C0 62.2176 0 66.8487 0 71.4636C0 72.4318 0 73.4 0 74.3682C0 77.4017 2.53256 79.9351 5.66101 79.9351C13.8546 79.9351 22.0481 79.9351 30.2417 79.9351C33.8005 79.9351 37.3428 79.9351 40.9016 79.9351C43.5169 79.9351 45.6522 78.6281 46.6288 76.2238C47.1089 75.0136 46.9433 73.4645 46.9433 72.1898C46.9433 64.7671 46.9433 57.3445 46.9433 49.9219C46.9433 43.774 46.9433 37.6261 46.9433 31.4783C46.9599 29.9937 44.477 29.9937 44.477 31.5589Z" fill="#CE9246"/>
<path d="M0.166057 40.6436C0.778506 41.9668 1.3744 43.0802 2.66551 43.9193C4.20491 44.9197 6.22433 44.2742 7.58165 45.5329C8.52515 46.4204 8.32652 47.7597 8.32652 48.9215C8.32652 50.5351 8.64102 51.8744 9.68384 53.1814C12.2164 56.328 17.4305 55.5373 19.3837 52.2616C20.1451 50.9707 20.0789 49.5346 20.0789 48.1147C20.0789 46.6785 20.8238 45.436 22.2473 44.9197C23.7701 44.3711 25.5247 44.9358 26.402 46.2751C26.9483 47.0981 26.8655 48.0501 26.8655 48.986C26.8655 50.8094 26.8655 52.6489 26.8655 54.4723C26.8655 56.457 26.8655 58.4257 26.8655 60.4104C26.8655 64.3476 31.1361 66.9455 34.8273 65.6224C36.9792 64.8478 38.3199 63.0245 38.6013 60.8461C38.7503 59.7488 38.4524 58.587 38.6841 57.4898C38.8496 56.6668 39.4952 55.9246 40.2897 55.6018C41.2166 55.2307 42.2595 55.3921 43.2195 55.1016C45.2721 54.4884 46.3149 52.8587 46.9108 50.9869C47.3908 49.4862 44.9907 48.8569 44.5106 50.3414C44.0803 51.6969 43.3519 52.8103 41.7463 52.9394C40.8194 53.0039 39.9752 53.0684 39.1145 53.4719C38.1875 53.9075 37.4592 54.5691 36.8964 55.3921C35.2908 57.7157 37.1778 60.8784 34.8935 62.847C33.7183 63.8474 31.7485 63.7667 30.5733 62.847C29.5967 62.0886 29.3484 61.072 29.3484 59.9102C29.3484 58.0223 29.3484 56.1343 29.3484 54.2303C29.3484 52.181 29.3484 50.1478 29.3484 48.0985C29.3484 44.6615 26.3524 41.9184 22.7935 42.3379C20.8403 42.5638 19.1023 43.6933 18.2085 45.4038C17.5298 46.6947 17.6126 48.0824 17.6126 49.4701C17.6126 52.891 12.8951 53.9075 11.1901 51.0192C10.6439 50.0994 10.826 48.8569 10.826 47.8403C10.826 46.2913 10.4618 44.9681 9.35278 43.8063C8.72378 43.1447 7.84649 42.709 6.9692 42.4509C6.14157 42.2088 5.28083 42.3379 4.46975 42.0797C3.24485 41.6925 2.81448 40.4338 2.33446 39.4011C2.05306 38.8041 1.17577 38.6589 0.629532 38.9654C-0.0160219 39.3366 -0.0987851 40.0466 0.166057 40.6436Z" fill="#CE9246"/>
<path d="M54.9381 77.5792C53.2331 77.5792 51.8427 76.5626 51.1309 75.0942C50.833 74.4649 50.833 73.7711 50.833 73.1095C50.833 71.27 50.833 69.4304 50.833 67.5909C50.833 63.2019 50.833 58.8128 50.833 54.4077C50.833 54.2786 50.833 54.1495 50.833 54.0365C50.4192 54.4399 50.0054 54.8433 49.5915 55.2467C53.1504 55.2467 56.7092 55.2467 60.268 55.2467C59.8542 54.8433 59.4404 54.4399 59.0266 54.0365C59.0266 57.7801 59.0266 61.5237 59.0266 65.2512C59.0266 67.4941 59.0266 69.737 59.0266 71.9799C59.0266 72.4802 59.0266 72.9965 59.0266 73.4967C59.0266 74.7715 58.4803 75.8526 57.5037 76.6917C56.8085 77.3049 55.8484 77.5631 54.9381 77.5792C53.3324 77.6115 53.3324 80.0319 54.9381 79.9996C58.5631 79.9189 61.5095 77.0951 61.5095 73.529C61.5095 72.0768 61.5095 70.6245 61.5095 69.1723C61.5095 64.4928 61.5095 59.7971 61.5095 55.1177C61.5095 54.7627 61.5095 54.3915 61.5095 54.0365C61.5095 53.375 60.9467 52.8263 60.268 52.8263C56.7092 52.8263 53.1504 52.8263 49.5915 52.8263C48.9129 52.8263 48.3501 53.375 48.3501 54.0365C48.3501 57.7801 48.3501 61.5237 48.3501 65.2512C48.3501 67.4941 48.3501 69.737 48.3501 71.9799C48.3501 73.9163 48.3832 75.7558 49.6578 77.4017C50.8992 79.0153 52.8524 79.9996 54.9381 79.9996C56.5271 79.9996 56.5271 77.5792 54.9381 77.5792Z" fill="#CE9246"/>
<path d="M56.1793 54.0367C56.1793 52.2456 55.6165 49.6799 57.6525 48.7601C58.8774 48.2115 60.1023 47.6629 61.3272 47.1143C65.9619 45.0327 70.5801 42.9673 75.2148 40.8857C76.4397 40.3371 77.6646 39.7884 78.8895 39.2398C80.3958 38.5621 79.9323 36.0287 79.9323 34.7378C79.9323 32.2367 79.9323 29.7356 79.9323 27.2506C79.9323 26.6375 79.9323 26.0404 79.9323 25.4273C79.9323 24.1202 78.7902 23.5877 77.6315 23.5877C75.3307 23.5877 73.0133 23.5877 70.7125 23.5877C69.1069 23.5877 69.1069 26.0082 70.7125 26.0082C72.765 26.0082 74.8341 26.0082 76.8867 26.0082C77.2343 26.0082 77.5984 26.0082 77.946 26.0082C78.4095 26.0082 77.4329 25.0077 77.4329 25.5725C77.4329 26.347 77.4329 27.1054 77.4329 27.88C77.4329 30.3972 77.4329 32.8983 77.4329 35.4155C77.4329 36.1255 77.4329 36.8355 77.4329 37.5455C77.4329 37.9166 77.9129 37.0453 77.6481 37.1582C77.4991 37.2228 77.3667 37.2873 77.2177 37.3519C73.212 39.143 69.2228 40.9341 65.217 42.7252C63.0652 43.6934 60.9133 44.6616 58.7615 45.6136C57.5697 46.1461 56.3117 46.5979 55.2854 47.3886C53.2495 48.9538 53.6964 51.826 53.6964 54.0367C53.6964 55.6019 56.1793 55.6019 56.1793 54.0367Z" fill="#CE9246"/>
</g>
</svg>
