<svg width="140" height="33" viewBox="0 0 140 33" fill="none" xmlns="http://www.w3.org/2000/svg">
<path d="M14.54 32L13.5 28.6H8.3L7.26 32H4L9.04 17.66H12.74L17.8 32H14.54ZM11.74 22.74C11.6733 22.5133 11.5867 22.2267 11.48 21.88C11.3733 21.5333 11.2667 21.18 11.16 20.82C11.0533 20.46 10.9667 20.1467 10.9 19.88C10.8333 20.1467 10.74 20.48 10.62 20.88C10.5133 21.2667 10.4067 21.64 10.3 22C10.2067 22.3467 10.1333 22.5933 10.08 22.74L9.06 26.06H12.78L11.74 22.74ZM32.6486 23.94C32.6486 24.5267 32.4619 25.0267 32.0886 25.44C31.7286 25.8533 31.1886 26.12 30.4686 26.24V26.32C31.2286 26.4133 31.8353 26.6733 32.2886 27.1C32.7553 27.5267 32.9886 28.0733 32.9886 28.74C32.9886 29.2067 32.8953 29.64 32.7086 30.04C32.5353 30.44 32.2553 30.7867 31.8686 31.08C31.4819 31.3733 30.9819 31.6 30.3686 31.76C29.7686 31.92 29.0353 32 28.1686 32H22.9686V21.08H28.1686C29.0219 21.08 29.7819 21.1733 30.4486 21.36C31.1286 21.5333 31.6619 21.8267 32.0486 22.24C32.4486 22.6533 32.6486 23.22 32.6486 23.94ZM29.9086 28.58C29.9086 28.1533 29.7419 27.8467 29.4086 27.66C29.0753 27.46 28.5753 27.36 27.9086 27.36H25.9486V29.94H27.9686C28.5286 29.94 28.9886 29.84 29.3486 29.64C29.7219 29.4267 29.9086 29.0733 29.9086 28.58ZM29.6286 24.18C29.6286 23.8333 29.4953 23.58 29.2286 23.42C28.9619 23.26 28.5686 23.18 28.0486 23.18H25.9486V25.34H27.7086C28.3353 25.34 28.8086 25.2533 29.1286 25.08C29.4619 24.8933 29.6286 24.5933 29.6286 24.18ZM48.1867 23.32H44.6067V32H41.6267V23.32H38.0467V21.08H48.1867V23.32ZM63.5261 26.52C63.5261 27.4267 63.3994 28.2333 63.1461 28.94C62.9061 29.6467 62.5528 30.2467 62.0861 30.74C61.6328 31.22 61.0794 31.5867 60.4261 31.84C59.7728 32.08 59.0328 32.2 58.2061 32.2C57.4461 32.2 56.7394 32.08 56.0861 31.84C55.4461 31.5867 54.8928 31.22 54.4261 30.74C53.9594 30.2467 53.5928 29.6467 53.3261 28.94C53.0728 28.2333 52.9461 27.4267 52.9461 26.52C52.9461 25.3067 53.1594 24.2867 53.5861 23.46C54.0128 22.62 54.6261 21.98 55.4261 21.54C56.2261 21.1 57.1728 20.88 58.2661 20.88C59.2928 20.88 60.1994 21.1 60.9861 21.54C61.7728 21.98 62.3928 22.62 62.8461 23.46C63.2994 24.2867 63.5261 25.3067 63.5261 26.52ZM55.9861 26.52C55.9861 27.24 56.0594 27.8467 56.2061 28.34C56.3661 28.82 56.6128 29.1867 56.9461 29.44C57.2794 29.68 57.7128 29.8 58.2461 29.8C58.7794 29.8 59.2061 29.68 59.5261 29.44C59.8594 29.1867 60.0994 28.82 60.2461 28.34C60.4061 27.8467 60.4861 27.24 60.4861 26.52C60.4861 25.8 60.4061 25.2 60.2461 24.72C60.0994 24.24 59.8594 23.88 59.5261 23.64C59.1928 23.4 58.7594 23.28 58.2261 23.28C57.4394 23.28 56.8661 23.5533 56.5061 24.1C56.1594 24.6333 55.9861 25.44 55.9861 26.52ZM78.8489 17.72V20.22H72.8489V32H69.8289V17.72H78.8489ZM87.4936 20.88C88.5069 20.88 89.3736 21.0733 90.0936 21.46C90.8269 21.8467 91.3936 22.4067 91.7936 23.14C92.1936 23.8733 92.3936 24.7733 92.3936 25.84V27.28H85.3536C85.3803 28.12 85.6269 28.78 86.0936 29.26C86.5736 29.74 87.2336 29.98 88.0736 29.98C88.7803 29.98 89.4203 29.9133 89.9936 29.78C90.5669 29.6333 91.1603 29.4133 91.7736 29.12V31.42C91.2403 31.6867 90.6736 31.88 90.0736 32C89.4869 32.1333 88.7736 32.2 87.9336 32.2C86.8403 32.2 85.8736 32 85.0336 31.6C84.1936 31.1867 83.5336 30.5667 83.0536 29.74C82.5736 28.9133 82.3336 27.8733 82.3336 26.62C82.3336 25.34 82.5469 24.28 82.9736 23.44C83.4136 22.5867 84.0203 21.9467 84.7936 21.52C85.5669 21.0933 86.4669 20.88 87.4936 20.88ZM87.5136 23C86.9403 23 86.4603 23.1867 86.0736 23.56C85.7003 23.9333 85.4803 24.5133 85.4136 25.3H89.5936C89.5936 24.86 89.5136 24.4667 89.3536 24.12C89.2069 23.7733 88.9803 23.5 88.6736 23.3C88.3669 23.1 87.9803 23 87.5136 23ZM103.21 17.72C105.05 17.72 106.39 18.12 107.23 18.92C108.083 19.7067 108.51 20.7933 108.51 22.18C108.51 22.8067 108.417 23.4067 108.23 23.98C108.043 24.54 107.73 25.0467 107.29 25.5C106.863 25.94 106.297 26.2867 105.59 26.54C104.883 26.7933 104.01 26.92 102.97 26.92H101.67V32H98.65V17.72H103.21ZM103.05 20.2H101.67V24.44H102.67C103.243 24.44 103.737 24.3667 104.15 24.22C104.563 24.0733 104.883 23.84 105.11 23.52C105.337 23.2 105.45 22.7867 105.45 22.28C105.45 21.5733 105.257 21.0533 104.87 20.72C104.483 20.3733 103.877 20.2 103.05 20.2ZM123.609 23.32H120.029V32H117.049V23.32H113.469V21.08H123.609V23.32ZM133.703 20.86C135.17 20.86 136.29 21.18 137.063 21.82C137.85 22.4467 138.243 23.4133 138.243 24.72V32H136.163L135.583 30.52H135.503C135.197 30.9067 134.877 31.2267 134.543 31.48C134.223 31.7333 133.85 31.9133 133.423 32.02C133.01 32.14 132.497 32.2 131.883 32.2C131.243 32.2 130.663 32.08 130.143 31.84C129.637 31.5867 129.237 31.2067 128.943 30.7C128.65 30.18 128.503 29.5267 128.503 28.74C128.503 27.58 128.91 26.7267 129.723 26.18C130.537 25.62 131.757 25.3133 133.383 25.26L135.283 25.2V24.72C135.283 24.1467 135.13 23.7267 134.823 23.46C134.53 23.1933 134.117 23.06 133.583 23.06C133.05 23.06 132.53 23.14 132.023 23.3C131.517 23.4467 131.01 23.6333 130.503 23.86L129.523 21.84C130.11 21.5333 130.757 21.2933 131.463 21.12C132.183 20.9467 132.93 20.86 133.703 20.86ZM134.123 26.98C133.163 27.0067 132.497 27.18 132.123 27.5C131.75 27.82 131.563 28.24 131.563 28.76C131.563 29.2133 131.697 29.54 131.963 29.74C132.23 29.9267 132.577 30.02 133.003 30.02C133.643 30.02 134.183 29.8333 134.623 29.46C135.063 29.0733 135.283 28.5333 135.283 27.84V26.94L134.123 26.98Z" fill="white"/>
<path d="M1.05621 22C0.647759 18.3261 2.28157 10.7683 12.0844 9.9286L19.0132 8.93935C21.638 8.56459 23.9609 7.09418 26.0044 5.40468C28.6554 3.21293 32.5986 1.00626 37.2042 1.00626C45.9859 0.831311 64.0394 4.26029 66 19.3758" stroke="white" stroke-width="2" stroke-linecap="round"/>
</svg>
